<svg width="398" height="262" viewBox="0 0 398 262" fill="none" xmlns="http://www.w3.org/2000/svg">
<g clip-path="url(#clip0)">
<path d="M388.938 238.84H37.0062C34.6038 238.838 32.3006 237.881 30.6018 236.181C28.9031 234.481 27.9475 232.176 27.9448 229.771V12.5831C27.9468 10.8216 28.6468 9.13283 29.8913 7.88724C31.1358 6.64166 32.8232 5.94099 34.5832 5.93896H391.247C393.037 5.941 394.754 6.65377 396.02 7.92089C397.286 9.18801 397.998 10.906 398 12.698V229.771C397.997 232.176 397.042 234.481 395.343 236.181C393.644 237.881 391.341 238.838 388.938 238.84Z" fill="#F2F2F2"/>
<path d="M377.56 227.39H49.5682C44.7602 227.39 40.8486 223.724 40.8486 219.218V30.088C40.8486 26.7462 43.7472 24.0273 47.31 24.0273H379.711C383.333 24.0273 386.28 26.791 386.28 30.1879V219.218C386.28 223.724 382.368 227.39 377.56 227.39Z" fill="white"/>
<path d="M397.874 13.7134H27.8176V9.09627C27.8211 6.68388 28.7806 4.37138 30.4855 2.66609C32.1904 0.960806 34.5016 0.00199303 36.912 0H388.779C391.19 0.00198142 393.501 0.960795 395.206 2.66609C396.911 4.37138 397.87 6.68388 397.874 9.09627V13.7134Z" fill="#3F3D56"/>
<path d="M44.3453 9.2247C45.6444 9.2247 46.6976 8.17065 46.6976 6.87041C46.6976 5.57017 45.6444 4.51611 44.3453 4.51611C43.0461 4.51611 41.9929 5.57017 41.9929 6.87041C41.9929 8.17065 43.0461 9.2247 44.3453 9.2247Z" fill="white"/>
<path d="M53.2742 9.2247C54.5734 9.2247 55.6266 8.17065 55.6266 6.87041C55.6266 5.57017 54.5734 4.51611 53.2742 4.51611C51.9751 4.51611 50.9219 5.57017 50.9219 6.87041C50.9219 8.17065 51.9751 9.2247 53.2742 9.2247Z" fill="white"/>
<path d="M62.2032 9.2247C63.5023 9.2247 64.5555 8.17065 64.5555 6.87041C64.5555 5.57017 63.5023 4.51611 62.2032 4.51611C60.904 4.51611 59.8508 5.57017 59.8508 6.87041C59.8508 8.17065 60.904 9.2247 62.2032 9.2247Z" fill="white"/>
<path d="M306.069 74.9595H150.667C144.445 74.9595 139.402 80.0074 139.402 86.2344V86.2345C139.402 92.4614 144.445 97.5094 150.667 97.5094H306.069C312.29 97.5094 317.334 92.4614 317.334 86.2344C317.334 80.0074 312.29 74.9595 306.069 74.9595Z" fill="#E6E6E6"/>
<path d="M306.069 112.273H150.667C144.445 112.273 139.402 117.321 139.402 123.548V123.548C139.402 129.775 144.445 134.823 150.667 134.823H306.069C312.29 134.823 317.334 129.775 317.334 123.548C317.334 117.321 312.29 112.273 306.069 112.273Z" fill="#E6E6E6"/>
<path d="M306.069 149.587H150.667C144.445 149.587 139.402 154.635 139.402 160.862V160.862C139.402 167.089 144.445 172.137 150.667 172.137H306.069C312.29 172.137 317.334 167.089 317.334 160.862C317.334 154.635 312.29 149.587 306.069 149.587Z" fill="#E6E6E6"/>
<path d="M119.631 135.09C126.001 135.09 131.164 129.923 131.164 123.548C131.164 117.173 126.001 112.006 119.631 112.006C113.262 112.006 108.099 117.173 108.099 123.548C108.099 129.923 113.262 135.09 119.631 135.09Z" fill="#E6E6E6"/>
<path d="M123.749 122.753L120.247 118.984C120.169 118.899 120.074 118.832 119.968 118.785C119.862 118.739 119.747 118.715 119.632 118.715C119.516 118.715 119.402 118.739 119.296 118.785C119.19 118.832 119.095 118.899 119.016 118.984L115.514 122.753C115.465 122.806 115.427 122.868 115.401 122.936C115.376 123.004 115.365 123.076 115.367 123.148C115.37 123.22 115.387 123.291 115.417 123.357C115.447 123.422 115.489 123.481 115.542 123.531C115.595 123.58 115.657 123.618 115.725 123.643C115.792 123.668 115.864 123.68 115.937 123.677C116.009 123.675 116.08 123.658 116.145 123.628C116.211 123.598 116.27 123.555 116.319 123.502L119.082 120.528V127.831C119.082 127.977 119.14 128.117 119.243 128.22C119.346 128.323 119.485 128.381 119.631 128.381C119.777 128.381 119.916 128.323 120.019 128.22C120.122 128.117 120.18 127.977 120.18 127.831V120.525L122.944 123.502C123.043 123.609 123.181 123.671 123.326 123.676C123.472 123.682 123.613 123.629 123.72 123.53C123.826 123.43 123.889 123.293 123.895 123.147C123.9 123.002 123.848 122.86 123.749 122.753Z" fill="white"/>
<path d="M119.631 172.404C126.001 172.404 131.164 167.237 131.164 160.862C131.164 154.487 126.001 149.32 119.631 149.32C113.262 149.32 108.099 154.487 108.099 160.862C108.099 167.237 113.262 172.404 119.631 172.404Z" fill="#E6E6E6"/>
<path d="M123.749 160.067L120.247 156.298C120.169 156.213 120.074 156.146 119.968 156.099C119.862 156.053 119.747 156.029 119.632 156.029C119.516 156.029 119.402 156.053 119.296 156.099C119.19 156.145 119.095 156.213 119.016 156.298L115.514 160.067C115.465 160.12 115.426 160.182 115.401 160.25C115.376 160.318 115.364 160.39 115.367 160.462C115.369 160.534 115.386 160.605 115.416 160.671C115.446 160.737 115.489 160.796 115.542 160.845C115.594 160.895 115.657 160.933 115.724 160.958C115.792 160.983 115.864 160.995 115.936 160.992C116.009 160.989 116.079 160.972 116.145 160.942C116.211 160.912 116.27 160.869 116.319 160.816L119.082 157.842V165.145C119.082 165.291 119.14 165.431 119.243 165.534C119.346 165.637 119.485 165.695 119.631 165.695C119.777 165.695 119.916 165.637 120.019 165.534C120.122 165.431 120.18 165.291 120.18 165.145V157.839L122.944 160.816C123.043 160.923 123.181 160.985 123.326 160.99C123.472 160.995 123.613 160.943 123.72 160.844C123.826 160.744 123.889 160.607 123.895 160.461C123.9 160.316 123.848 160.174 123.749 160.067Z" fill="white"/>
<path d="M119.631 97.7763C126.001 97.7763 131.164 92.6087 131.164 86.2341C131.164 79.8595 126.001 74.6919 119.631 74.6919C113.262 74.6919 108.099 79.8595 108.099 86.2341C108.099 92.6087 113.262 97.7763 119.631 97.7763Z" fill="#EB9554"/>
<path d="M123.749 85.4392L120.247 81.6698C120.169 81.5851 120.074 81.5176 119.968 81.4714C119.862 81.4252 119.747 81.4014 119.632 81.4014C119.516 81.4014 119.402 81.4252 119.296 81.4714C119.19 81.5175 119.095 81.5851 119.016 81.6697L115.514 85.4392C115.465 85.4921 115.426 85.5542 115.401 85.6219C115.376 85.6897 115.364 85.7617 115.367 85.834C115.369 85.9063 115.386 85.9774 115.416 86.0431C115.446 86.1089 115.489 86.1681 115.542 86.2174C115.594 86.2666 115.657 86.3049 115.724 86.3301C115.792 86.3553 115.864 86.3669 115.936 86.3642C116.009 86.3615 116.079 86.3446 116.145 86.3144C116.211 86.2842 116.27 86.2414 116.319 86.1883L119.082 83.2136V90.5174C119.082 90.6632 119.14 90.803 119.243 90.906C119.346 91.0091 119.485 91.067 119.631 91.067C119.777 91.067 119.916 91.0091 120.019 90.906C120.122 90.803 120.18 90.6632 120.18 90.5174V83.2115L122.944 86.1882C123.043 86.2946 123.181 86.3573 123.326 86.3624C123.472 86.3675 123.613 86.3148 123.72 86.2156C123.826 86.1165 123.889 85.9791 123.895 85.8335C123.9 85.688 123.848 85.5462 123.749 85.4392Z" fill="white"/>
<path d="M108.817 85.9263C108.014 85.8489 107.203 85.9488 106.442 86.2189C105.681 86.4891 104.989 86.9229 104.413 87.4899C103.838 88.0568 103.394 88.7431 103.113 89.5004C102.831 90.2577 102.719 91.0675 102.784 91.8729L84.8218 99.7848L93.3898 105.32L109.133 96.9581C110.478 96.7592 111.703 96.0735 112.576 95.0309C113.449 93.9884 113.91 92.6615 113.871 91.3017C113.832 89.9419 113.296 88.6436 112.365 87.6529C111.433 86.6622 110.171 86.0478 108.817 85.9263V85.9263Z" fill="#A0616A"/>
<path d="M36.3638 76.0566C43.8132 76.0566 49.8521 70.0126 49.8521 62.5571C49.8521 55.1015 43.8132 49.0576 36.3638 49.0576C28.9144 49.0576 22.8755 55.1015 22.8755 62.5571C22.8755 70.0126 28.9144 76.0566 36.3638 76.0566Z" fill="#A0616A"/>
<path d="M60.7755 255.045L67.5084 255.045L70.7112 229.054L60.7744 229.054L60.7755 255.045Z" fill="#A0616A"/>
<path d="M59.0581 252.845L72.3173 252.845H72.3178C73.4275 252.845 74.5263 253.063 75.5515 253.488C76.5767 253.913 77.5082 254.536 78.2928 255.322C79.0774 256.107 79.6999 257.039 80.1245 258.065C80.5491 259.091 80.7677 260.191 80.7677 261.301V261.576L59.0585 261.577L59.0581 252.845Z" fill="#2F2E41"/>
<path d="M32.7677 255.045L39.5006 255.045L42.7034 229.054L32.7666 229.054L32.7677 255.045Z" fill="#A0616A"/>
<path d="M31.0503 252.845L44.3095 252.845H44.31C45.4197 252.845 46.5185 253.063 47.5436 253.488C48.5688 253.913 49.5003 254.536 50.285 255.322C51.0696 256.107 51.6921 257.039 52.1167 258.065C52.5413 259.091 52.7599 260.191 52.7599 261.301V261.576L31.0507 261.577L31.0503 252.845Z" fill="#2F2E41"/>
<path d="M31.4523 248.891C31.1903 248.66 30.9803 248.376 30.836 248.058C30.6917 247.739 30.6164 247.394 30.6152 247.044L30.2983 149.649L65.4577 148.293L65.7161 148.283L71.4982 206.704L72.2228 243.922C72.2366 244.537 72.0204 245.134 71.6168 245.597C71.2131 246.061 70.6511 246.356 70.0408 246.426L61.5064 247.432C61.1678 247.472 60.8247 247.441 60.4985 247.342C60.1723 247.243 59.8701 247.077 59.611 246.856C59.3519 246.634 59.1415 246.361 58.993 246.054C58.8445 245.747 58.7611 245.412 58.748 245.071L57.2287 205.533L49.8509 180.918C49.7733 180.751 49.6422 180.615 49.4785 180.532C49.3148 180.448 49.1279 180.422 48.9475 180.457C48.7671 180.492 48.6036 180.586 48.4829 180.725C48.3623 180.864 48.2914 181.039 48.2816 181.222L45.4097 245.949C45.3807 246.53 45.1474 247.082 44.7511 247.508C44.3548 247.934 43.8209 248.206 43.2436 248.277L33.3882 249.491C33.0415 249.534 32.6896 249.503 32.3559 249.399C32.0221 249.296 31.7141 249.123 31.4523 248.891L31.4523 248.891Z" fill="#2F2E41"/>
<path d="M29.2307 153.106L18.814 110.768C15.5681 97.576 22.9828 84.2931 35.3426 81.1585C38.2427 80.4174 41.2676 80.306 44.2143 80.8318C47.1609 81.3577 49.961 82.5086 52.4264 84.2072C55.2292 86.1477 57.5915 88.6581 59.3592 91.5743C61.1269 94.4905 62.2602 97.7471 62.6851 101.131L69.4894 151.253C69.5362 151.597 69.51 151.948 69.4124 152.281C69.3149 152.615 69.1482 152.924 68.9233 153.188C68.6983 153.453 68.4202 153.667 68.107 153.817C67.7938 153.967 67.4525 154.049 67.1054 154.059L31.6952 154.987C31.6736 154.988 31.6522 154.988 31.6307 154.988C31.0787 154.985 30.5432 154.799 30.1086 154.458C29.6741 154.117 29.3652 153.642 29.2307 153.106Z" fill="#EB9554"/>
<path d="M72.8687 113.992L46.4599 101.154C45.3555 100.617 44.3745 99.8566 43.5789 98.9207C42.7833 97.9847 42.1905 96.8937 41.838 95.7167C41.4854 94.5397 41.3808 93.3022 41.5308 92.0826C41.6808 90.863 42.082 89.6878 42.7092 88.6315C43.3364 87.5751 44.1758 86.6605 45.1744 85.9456C46.173 85.2307 47.309 84.731 48.5105 84.4781C49.712 84.2253 50.9528 84.2247 52.1545 84.4766C53.3562 84.7285 54.4926 85.2273 55.4918 85.9414L76.8595 101.213L99.9258 92.0206C100.385 91.8364 100.889 91.7948 101.372 91.9014C101.855 92.008 102.295 92.2577 102.634 92.618L105.745 95.905C105.994 96.1677 106.182 96.4817 106.296 96.825C106.41 97.1683 106.447 97.5325 106.405 97.8919C106.364 98.2512 106.243 98.597 106.054 98.9049C105.864 99.2127 105.609 99.4751 105.306 99.6735L84.656 113.233C82.9228 114.364 80.927 115.029 78.8619 115.162C76.7969 115.295 74.7325 114.892 72.8687 113.992V113.992Z" fill="#EB9554"/>
<path d="M31.1472 75.2095C30.0882 75.2301 29.0381 75.0131 28.074 74.5742C27.6439 74.3849 27.1974 74.2292 26.768 74.0397C22.9763 72.366 20.4786 67.7524 20.3891 63.1095C20.3781 60.8458 20.8282 58.6037 21.712 56.52C22.5958 54.4363 23.8946 52.5548 25.5293 50.9903C28.6148 48.1488 32.5727 46.4398 36.7552 46.1431C41.1211 45.7633 46.0373 47.0282 48.4769 51.1822C48.8477 51.7305 49.1028 52.3487 49.2263 52.9991C49.3499 53.6495 49.3395 54.3183 49.1957 54.9645C49.086 55.3576 48.8809 55.7175 48.5987 56.0121C47.5092 57.1195 46.4231 56.2869 45.3124 56.2133C43.7858 56.1121 42.4147 57.5239 41.9219 59.1777C41.4291 60.8316 41.646 62.6523 42.0439 64.3391L42.0512 64.3705C42.1412 64.7643 42.146 65.1728 42.0651 65.5686C41.9843 65.9643 41.8197 66.3382 41.5825 66.665C41.3452 66.9919 41.0409 67.2641 40.6898 67.4634C40.3387 67.6627 39.949 67.7845 39.547 67.8205C37.868 67.9721 36.0236 68.0665 35.4971 67.8194C34.4661 67.3354 33.0809 67.4427 32.4808 68.5159C32.2883 68.9125 32.1596 69.337 32.0995 69.7738C31.5615 72.5741 31.6852 72.4092 31.1472 75.2094L31.1472 75.2095Z" fill="#2F2E41"/>
<path d="M27.3325 175.572C27.8145 174.924 28.1486 174.178 28.3114 173.387C28.4741 172.595 28.4615 171.778 28.2744 170.992C28.0873 170.206 27.7303 169.47 27.2285 168.837C26.7267 168.204 26.0924 167.689 25.3701 167.328L27.8998 147.851L18.7337 152.325L17.7367 170.135C17.211 171.389 17.1634 172.793 17.6029 174.08C18.0425 175.368 18.9385 176.449 20.1213 177.119C21.3041 177.789 22.6915 178.002 24.0206 177.717C25.3496 177.432 26.528 176.669 27.3325 175.572Z" fill="#A0616A"/>
<path d="M28.3845 163.707C28.2176 163.766 28.045 163.806 27.8697 163.828L18.6186 164.999C18.2704 165.043 17.9169 165.012 17.5815 164.909C17.2461 164.806 16.9366 164.632 16.6735 164.4C16.4103 164.167 16.1997 163.881 16.0555 163.561C15.9114 163.241 15.837 162.894 15.8374 162.542L15.9104 97.894C15.9212 96.0228 16.6003 94.2172 17.825 92.8033C19.0497 91.3894 20.7393 90.4605 22.5885 90.1844C23.757 90.0157 24.9484 90.1149 26.073 90.4745C27.1975 90.8341 28.2257 91.4447 29.0799 92.2603C29.9342 93.0759 30.592 94.075 31.0039 95.1823C31.4158 96.2896 31.5709 97.4761 31.4575 98.6522L28.7698 126.512L30.0296 161.285C30.0512 161.812 29.9029 162.332 29.6067 162.768C29.3105 163.204 28.882 163.534 28.3845 163.707Z" fill="#EB9554"/>
<path d="M113.679 262H0.549175C0.403525 262 0.263839 261.942 0.160849 261.839C0.0578589 261.736 0 261.596 0 261.45C0 261.305 0.0578589 261.165 0.160849 261.062C0.263839 260.959 0.403525 260.901 0.549175 260.901H113.679C113.825 260.901 113.965 260.959 114.068 261.062C114.171 261.165 114.228 261.305 114.228 261.45C114.228 261.596 114.171 261.736 114.068 261.839C113.965 261.942 113.825 262 113.679 262Z" fill="#CCCCCC"/>
</g>
<defs>
<clipPath id="clip0">
<rect width="398" height="262" fill="white"/>
</clipPath>
</defs>
</svg>
