<svg width="184" height="150" viewBox="0 0 184 150" fill="none" xmlns="http://www.w3.org/2000/svg">
<g clip-path="url(#clip0)">
<path d="M149.745 15.0757C150.921 10.3227 149.803 4.77954 146.005 1.65317C145.93 6.9745 143.96 12.0983 140.441 16.118C139.078 17.6634 137.401 19.2415 137.334 21.2929C137.293 22.5693 137.922 23.7953 138.788 24.7407C139.654 25.686 140.747 26.3935 141.827 27.0901L141.986 27.3675C145.461 23.8921 148.569 19.8287 149.745 15.0757Z" fill="#F0F0F0"/>
<path d="M145.928 1.72263C147.385 5.50721 147.602 9.65054 146.547 13.5641C146.336 14.4106 145.99 15.2187 145.525 15.9587C145.048 16.6649 144.388 17.2317 143.615 17.6C142.902 17.9577 142.13 18.2418 141.516 18.7653C141.206 19.0379 140.958 19.3723 140.787 19.7467C140.617 20.1212 140.528 20.5271 140.527 20.9378C140.498 21.9613 140.841 22.9343 141.21 23.8742C141.619 24.9179 142.061 25.9954 141.967 27.138C141.955 27.2765 142.173 27.286 142.184 27.1478C142.349 25.1599 140.987 23.4807 140.771 21.5524C140.67 20.6527 140.842 19.7174 141.513 19.0614C142.1 18.4878 142.896 18.1942 143.621 17.8381C144.381 17.4898 145.042 16.9625 145.549 16.3022C146.051 15.5882 146.427 14.7946 146.66 13.9555C147.217 12.0747 147.471 10.1189 147.415 8.15972C147.363 5.92339 146.925 3.71237 146.121 1.6223C146.071 1.49296 145.879 1.59413 145.928 1.72262V1.72263Z" fill="white"/>
<path d="M146.962 12.3237C147.648 12.4099 148.343 12.2514 148.923 11.8766C149.502 11.5017 149.928 10.9349 150.125 10.2774C150.164 10.1442 149.957 10.0774 149.918 10.2107C149.736 10.8233 149.339 11.3513 148.799 11.6993C148.258 12.0472 147.61 12.1923 146.972 12.1083C146.833 12.0902 146.824 12.3057 146.962 12.3237Z" fill="white"/>
<path d="M144.001 17.4658C143.125 16.3654 142.699 14.978 142.809 13.5803C142.82 13.4418 142.602 13.4322 142.591 13.5705C142.48 15.0253 142.926 16.4682 143.841 17.6113C143.928 17.7202 144.088 17.5741 144.001 17.4658Z" fill="white"/>
<path d="M147.101 6.04304C146.828 6.06455 146.554 6.01861 146.304 5.90935C146.054 5.80009 145.835 5.63091 145.667 5.41703C145.581 5.30709 145.421 5.45328 145.506 5.56249C145.693 5.79794 145.935 5.98448 146.211 6.10581C146.487 6.22713 146.789 6.27956 147.091 6.25851C147.119 6.25889 147.147 6.24846 147.168 6.22936C147.189 6.21025 147.202 6.1839 147.204 6.15566C147.206 6.12712 147.195 6.09928 147.176 6.0782C147.157 6.05711 147.129 6.04448 147.101 6.04304Z" fill="white"/>
<path d="M129.579 4.73013C129.631 4.80029 129.683 4.87044 129.734 4.94233C130.423 5.88909 131.033 6.88976 131.559 7.93448C131.6 8.01462 131.642 8.09645 131.681 8.17761C132.92 10.708 133.675 13.4443 133.906 16.2477C133.997 17.3633 134.002 18.4841 133.922 19.6005C133.81 21.1422 133.566 22.8051 133.963 24.2507C134.003 24.402 134.052 24.5507 134.11 24.696L141.632 27.5377C141.652 27.5357 141.672 27.5354 141.693 27.5334L141.988 27.6604C141.996 27.6032 142.003 27.5436 142.011 27.4863C142.016 27.4531 142.019 27.4192 142.024 27.386C142.027 27.3637 142.03 27.3413 142.034 27.3213C142.034 27.3138 142.035 27.3064 142.036 27.3006C142.039 27.2806 142.041 27.2616 142.044 27.2433C142.085 26.9103 142.125 26.5765 142.162 26.2417C142.162 26.24 142.162 26.24 142.161 26.2377C142.468 23.6898 142.469 21.1148 142.163 18.5667C142.153 18.4908 142.144 18.4132 142.13 18.336C141.972 17.1994 141.72 16.0775 141.378 14.9816C141.188 14.382 140.968 13.7924 140.719 13.215C140.071 11.7241 139.19 10.3436 138.11 9.1239C135.955 6.69285 133.04 4.97194 129.825 4.74507C129.743 4.73933 129.662 4.73417 129.579 4.73013Z" fill="#F0F0F0"/>
<path d="M129.56 4.83115C133.022 6.9836 135.711 10.1625 137.247 13.9164C137.592 14.7187 137.807 15.5699 137.885 16.4387C137.933 17.2874 137.75 18.1334 137.357 18.8887C137.004 19.6002 136.561 20.2876 136.389 21.0717C136.307 21.4744 136.312 21.8897 136.403 22.2904C136.494 22.6911 136.67 23.0681 136.919 23.3967C137.517 24.2316 138.382 24.8037 139.247 25.334C140.208 25.9229 141.216 26.5194 141.834 27.4882C141.909 27.6056 142.088 27.4835 142.014 27.3663C140.938 25.6807 138.83 25.1528 137.486 23.7422C136.859 23.0839 136.429 22.2344 136.566 21.3101C136.686 20.5019 137.143 19.7927 137.506 19.0752C137.901 18.344 138.109 17.5281 138.112 16.6987C138.08 15.8289 137.898 14.9709 137.575 14.1615C136.876 12.3277 135.892 10.6142 134.657 9.0837C133.257 7.32916 131.564 5.82493 129.653 4.63607C129.534 4.56253 129.442 4.7581 129.56 4.83116V4.83115Z" fill="white"/>
<path d="M136.824 12.6789C137.424 12.338 137.883 11.7967 138.118 11.1516C138.353 10.5065 138.349 9.79966 138.107 9.15724C138.057 9.02742 137.851 9.09753 137.901 9.22752C138.128 9.82533 138.131 10.4838 137.911 11.0841C137.691 11.6843 137.262 12.1868 136.701 12.5009C136.579 12.5693 136.703 12.7469 136.824 12.6789Z" fill="white"/>
<path d="M137.584 18.5512C136.216 18.1958 135.033 17.3422 134.271 16.1607C134.196 16.0435 134.017 16.1656 134.092 16.2826C134.887 17.5106 136.119 18.3964 137.544 18.7633C137.68 18.7981 137.719 18.5859 137.584 18.5512Z" fill="white"/>
<path d="M133.12 7.58111C132.916 7.76097 132.669 7.88766 132.403 7.94977C132.137 8.01189 131.859 8.00749 131.595 7.93699C131.46 7.90042 131.421 8.11269 131.555 8.14901C131.847 8.22557 132.154 8.23005 132.448 8.16206C132.742 8.09408 133.015 7.95571 133.243 7.75903C133.266 7.74227 133.282 7.71745 133.287 7.6896C133.293 7.66176 133.287 7.63297 133.272 7.60911C133.255 7.58563 133.23 7.56952 133.202 7.56428C133.173 7.55904 133.144 7.56509 133.12 7.58112V7.58111Z" fill="white"/>
<path d="M119.635 112.094C94.4181 112.094 73.9031 91.7593 73.9031 66.7643C73.9031 41.7693 94.4181 21.4344 119.635 21.4344C122.3 21.4341 124.961 21.6626 127.587 22.1175C127.62 22.1231 127.652 22.1351 127.68 22.1527C127.708 22.1703 127.732 22.1932 127.751 22.2202C127.77 22.2471 127.784 22.2775 127.791 22.3097C127.798 22.3418 127.799 22.3751 127.793 22.4075C127.788 22.4399 127.775 22.4709 127.758 22.4987C127.74 22.5265 127.717 22.5505 127.689 22.5694C127.662 22.5883 127.631 22.6017 127.599 22.6088C127.567 22.6159 127.533 22.6166 127.5 22.6108C124.903 22.161 122.271 21.935 119.635 21.9353C94.6967 21.9353 74.4084 42.0454 74.4084 66.7643C74.4084 91.4832 94.6967 111.593 119.635 111.593C144.572 111.593 164.861 91.4832 164.861 66.7643C164.872 55.5916 160.663 44.8196 153.063 36.5689C153.018 36.5197 152.995 36.455 152.998 36.3889C153.001 36.3228 153.031 36.2607 153.08 36.2161C153.129 36.1715 153.195 36.1481 153.261 36.1509C153.328 36.1538 153.391 36.1827 153.436 36.2314C161.121 44.5743 165.377 55.4668 165.366 66.7643C165.366 91.7593 144.851 112.094 119.635 112.094Z" fill="#E4E4E4"/>
<path d="M139.799 36.981C144.796 36.981 148.847 32.9656 148.847 28.0124C148.847 23.0592 144.796 19.0439 139.799 19.0439C134.801 19.0439 130.75 23.0592 130.75 28.0124C130.75 32.9656 134.801 36.981 139.799 36.981Z" fill="#EB9554"/>
<path d="M138.564 32.6801C138.408 32.6801 138.254 32.6441 138.114 32.5748C137.974 32.5055 137.853 32.4049 137.759 32.281L135.291 29.0186C135.211 28.9138 135.154 28.7945 135.121 28.6676C135.088 28.5407 135.081 28.4086 135.099 28.279C135.118 28.1493 135.162 28.0245 135.23 27.9118C135.297 27.799 135.386 27.7006 135.492 27.622C135.598 27.5434 135.718 27.4862 135.846 27.4537C135.974 27.4212 136.107 27.414 136.238 27.4325C136.369 27.451 136.495 27.4949 136.609 27.5617C136.722 27.6284 136.822 27.7167 136.901 27.8215L138.516 29.9557L142.664 23.7888C142.812 23.5695 143.042 23.4176 143.304 23.3662C143.565 23.3148 143.836 23.3682 144.058 23.5147C144.279 23.6612 144.433 23.8888 144.486 24.1476C144.539 24.4064 144.486 24.6754 144.339 24.8956L139.402 32.2359C139.312 32.3686 139.192 32.4782 139.051 32.5555C138.911 32.6327 138.753 32.6753 138.592 32.6798C138.583 32.68 138.573 32.6801 138.564 32.6801Z" fill="white"/>
<path d="M118.458 59.7297L104.505 21.2542L104.859 21.1281L102.293 14.0514L101.939 14.1776L97.6548 2.36443C97.4948 1.92322 97.2487 1.51756 96.9306 1.17063C96.6124 0.82369 96.2284 0.542268 95.8005 0.342426C95.3727 0.142584 94.9093 0.0282349 94.4368 0.00591104C93.9643 -0.0164128 93.4921 0.0537248 93.047 0.212318L67.8233 9.19947C67.3782 9.35805 66.9689 9.60198 66.6189 9.91734C66.2689 10.2327 65.9849 10.6133 65.7833 11.0374C65.5817 11.4615 65.4663 11.9209 65.4438 12.3892C65.4213 12.8575 65.492 13.3256 65.652 13.7668L68.639 22.0037L68.0799 22.2171L69.9867 27.125L70.4343 26.9542L70.8302 28.0459L70.3539 28.2277L72.2607 33.1356L72.6254 32.9964L86.455 71.1321C86.6142 71.5738 86.8599 71.9801 87.1779 72.3275C87.4959 72.6749 87.88 72.9567 88.3081 73.1566C88.7362 73.3566 89.1999 73.4708 89.6727 73.4927C90.1454 73.5146 90.6179 73.4438 91.0629 73.2843L116.286 64.2972C117.185 63.976 117.918 63.3147 118.325 62.4584C118.732 61.6022 118.78 60.6208 118.458 59.7297Z" fill="#3F3D56"/>
<path d="M89.7363 72.0163C89.3811 72.0155 89.0348 71.9063 88.7444 71.7036C88.454 71.5008 88.2336 71.2144 88.1132 70.8832L67.0907 12.9125C66.9359 12.4855 66.9586 12.0151 67.1537 11.6046C67.3488 11.1942 67.7003 10.8774 68.1311 10.7239L73.4979 8.81174L73.4899 8.99786C73.4761 9.32094 73.5427 9.64243 73.6838 9.934C73.8249 10.2256 74.0362 10.4783 74.299 10.6698C74.5618 10.8614 74.8682 10.9859 75.191 11.0325C75.5139 11.079 75.8433 11.0462 76.1503 10.9368L88.0609 6.69315C88.3483 6.56258 88.6008 6.36676 88.7978 6.12154C88.9948 5.87632 89.1308 5.58858 89.1947 5.2816C89.2581 4.97974 89.2485 4.66732 89.1667 4.36983C89.085 4.07234 88.9335 3.79822 88.7246 3.56984L88.5989 3.43128L94.1425 1.456C94.5733 1.30316 95.0476 1.3259 95.4616 1.51924C95.8755 1.71258 96.1952 2.06073 96.3505 2.48736L116.408 57.7963C116.817 58.9293 116.756 60.177 116.239 61.2657C115.721 62.3544 114.789 63.1951 113.647 63.6035L90.3212 71.9145C90.1336 71.9816 89.9358 72.0161 89.7363 72.0163Z" fill="white"/>
<path d="M87.6814 30.8987C91.449 30.8987 94.5033 27.8713 94.5033 24.1368C94.5033 20.4023 91.449 17.3749 87.6814 17.3749C83.9139 17.3749 80.8596 20.4023 80.8596 24.1368C80.8596 27.8713 83.9139 30.8987 87.6814 30.8987Z" fill="#EB9554"/>
<path d="M104.586 33.9703L80.9615 42.3876C80.8877 42.414 80.8093 42.4258 80.731 42.4223C80.6526 42.4187 80.5756 42.3998 80.5046 42.3668C80.4336 42.3337 80.3698 42.287 80.317 42.2295C80.2642 42.172 80.2233 42.1047 80.1968 42.0315C80.1702 41.9583 80.1585 41.8806 80.1623 41.8029C80.1661 41.7252 80.1853 41.649 80.2188 41.5787C80.2524 41.5084 80.2996 41.4453 80.3577 41.3931C80.4159 41.3408 80.4839 41.3005 80.5578 41.2744L104.182 32.857C104.331 32.8045 104.495 32.8125 104.637 32.8794C104.78 32.9464 104.891 33.0667 104.944 33.2141C104.997 33.3615 104.99 33.5238 104.923 33.6656C104.855 33.8073 104.734 33.9169 104.586 33.9703Z" fill="#E6E6E6"/>
<path d="M97.5701 39.3072L89.7994 42.0759C89.7257 42.1024 89.6473 42.1141 89.569 42.1105C89.4906 42.1069 89.4137 42.0881 89.3427 42.055C89.2717 42.0219 89.2079 41.9753 89.1551 41.9177C89.1023 41.8602 89.0615 41.7929 89.0349 41.7197C89.0084 41.6466 88.9967 41.5689 89.0004 41.4912C89.0042 41.4135 89.0234 41.3373 89.0569 41.267C89.0904 41.1967 89.1376 41.1336 89.1958 41.0814C89.2539 41.0292 89.3218 40.9888 89.3957 40.9626L97.1664 38.1939C97.3154 38.1409 97.4795 38.1486 97.6226 38.2155C97.7658 38.2824 97.8763 38.4029 97.9298 38.5505C97.9834 38.6981 97.9756 38.8608 97.9081 39.0027C97.8406 39.1446 97.7191 39.2541 97.5701 39.3072Z" fill="#E6E6E6"/>
<path d="M99.4184 44.4039L91.6477 47.1726C91.574 47.1989 91.4957 47.2105 91.4174 47.2068C91.3392 47.2031 91.2624 47.1841 91.1915 47.151C91.1206 47.1179 91.057 47.0713 91.0043 47.0138C90.9516 46.9563 90.9108 46.8891 90.8843 46.816C90.8578 46.7429 90.8461 46.6654 90.8498 46.5878C90.8535 46.5102 90.8726 46.4341 90.906 46.3638C90.9394 46.2936 90.9865 46.2305 91.0445 46.1783C91.1024 46.126 91.1703 46.0856 91.244 46.0593L99.0147 43.2906C99.1636 43.2376 99.3277 43.2453 99.4709 43.3122C99.614 43.379 99.7246 43.4995 99.7781 43.6472C99.8316 43.7948 99.8238 43.9575 99.7563 44.0994C99.6889 44.2413 99.5673 44.3508 99.4184 44.4039V44.4039Z" fill="#E6E6E6"/>
<path d="M100.365 47.0144L92.5944 49.7831C92.5206 49.8096 92.4423 49.8214 92.3639 49.8178C92.2855 49.8143 92.2085 49.7954 92.1375 49.7624C92.0664 49.7293 92.0027 49.6826 91.9498 49.6251C91.897 49.5676 91.8562 49.5003 91.8296 49.427C91.8031 49.3538 91.7913 49.2761 91.7951 49.1984C91.7989 49.1207 91.8181 49.0445 91.8517 48.9742C91.8852 48.9038 91.9324 48.8408 91.9906 48.7885C92.0488 48.7363 92.1168 48.696 92.1907 48.6698L99.9614 45.9012C100.035 45.8747 100.114 45.8629 100.192 45.8665C100.27 45.87 100.347 45.8889 100.418 45.922C100.489 45.955 100.553 46.0017 100.606 46.0592C100.659 46.1167 100.7 46.184 100.726 46.2572C100.753 46.3304 100.764 46.4081 100.761 46.4858C100.757 46.5635 100.738 46.6397 100.704 46.71C100.671 46.7804 100.623 46.8434 100.565 46.8957C100.507 46.9479 100.439 46.9882 100.365 47.0144L100.365 47.0144Z" fill="#E6E6E6"/>
<path d="M102.839 40.267L86.3526 46.1412C86.2788 46.1677 86.2005 46.1795 86.1221 46.1759C86.0437 46.1724 85.9668 46.1535 85.8957 46.1204C85.8247 46.0874 85.761 46.0407 85.7081 45.9832C85.6553 45.9257 85.6145 45.8584 85.5879 45.7852C85.5614 45.712 85.5496 45.6343 85.5534 45.5566C85.5572 45.4789 85.5764 45.4027 85.6099 45.3324C85.6435 45.262 85.6907 45.199 85.7488 45.1467C85.807 45.0945 85.875 45.0542 85.9489 45.028L102.436 39.1538C102.509 39.1273 102.588 39.1155 102.666 39.1191C102.745 39.1227 102.821 39.1415 102.893 39.1746C102.964 39.2077 103.027 39.2543 103.08 39.3118C103.133 39.3694 103.174 39.4367 103.2 39.5099C103.227 39.5831 103.239 39.6607 103.235 39.7384C103.231 39.8161 103.212 39.8923 103.178 39.9627C103.145 40.033 103.098 40.0961 103.039 40.1483C102.981 40.2005 102.913 40.2409 102.839 40.267Z" fill="#E6E6E6"/>
<path d="M99.5184 53.3514L96.6969 54.3567C96.4437 54.4467 96.1648 54.4334 95.9215 54.3196C95.6782 54.2059 95.4904 54.0011 95.3994 53.7502C95.3084 53.4992 95.3217 53.2228 95.4362 52.9816C95.5508 52.7403 95.7573 52.554 96.0104 52.4637L98.8319 51.4584C99.0851 51.3684 99.364 51.3817 99.6073 51.4954C99.8506 51.6091 100.038 51.814 100.129 52.0649C100.22 52.3158 100.207 52.5923 100.093 52.8335C99.9779 53.0747 99.7714 53.261 99.5184 53.3514Z" fill="#EB9554"/>
<path d="M77.2842 8.99919C77.5009 8.99919 77.6766 8.82506 77.6766 8.61026C77.6766 8.39546 77.5009 8.22133 77.2842 8.22133C77.0675 8.22133 76.8918 8.39546 76.8918 8.61026C76.8918 8.82506 77.0675 8.99919 77.2842 8.99919Z" fill="white"/>
<path d="M32.1594 30.4847C36.5571 25.3535 43.6925 22.1198 50.2709 23.7963C44.346 28.1686 40.1723 34.4772 38.4882 41.6061C37.8488 44.3577 37.4267 47.4842 35.1728 49.2111C33.7704 50.2856 31.8847 50.5794 30.1232 50.3844C28.3616 50.1893 26.6849 49.5522 25.0309 48.9206L24.5911 48.969C25.6973 42.3261 27.7617 35.6158 32.1594 30.4847Z" fill="#F0F0F0"/>
<path d="M50.2544 23.9366C44.8236 25.3782 39.9891 28.4793 36.4376 32.7994C35.6563 33.716 35.0258 34.7489 34.569 35.8601C34.1594 36.9568 34.0535 38.1422 34.2624 39.2932C34.4354 40.3703 34.7383 41.4521 34.6441 42.5521C34.5875 43.1145 34.4116 43.6586 34.128 44.1488C33.8443 44.6391 33.4593 45.0643 32.9982 45.3968C31.871 46.2546 30.5001 46.6599 29.1455 47.0101C27.6416 47.3988 26.0732 47.779 24.8645 48.8048C24.718 48.9291 24.532 48.6966 24.6782 48.5725C26.7812 46.7877 29.7679 46.9391 32.1107 45.6232C33.2039 45.0092 34.1171 44.065 34.3138 42.7945C34.4858 41.6835 34.1745 40.5676 33.9898 39.4786C33.7694 38.3587 33.829 37.2024 34.1634 36.1106C34.5615 34.98 35.1509 33.9247 35.9063 32.99C37.573 30.8589 39.5674 29.0008 41.8164 27.4838C44.3735 25.7383 47.2129 24.4393 50.212 23.6429C50.3976 23.5936 50.4389 23.8877 50.2545 23.9366H50.2544Z" fill="white"/>
<path d="M37.4984 31.3416C36.848 30.6526 36.466 29.7568 36.4204 28.8143C36.3748 27.8719 36.6687 26.944 37.2496 26.1965C37.3677 26.0456 37.6097 26.2204 37.4915 26.3714C36.9493 27.0665 36.6756 27.9309 36.7198 28.8084C36.7641 29.686 37.1233 30.519 37.7328 31.157C37.865 31.2958 37.6299 31.4796 37.4984 31.3416H37.4984Z" fill="white"/>
<path d="M34.1021 38.7586C36.0463 38.84 37.95 38.192 39.4337 36.9439C39.5806 36.8202 39.7666 37.0527 39.6199 37.1763C38.0735 38.4722 36.091 39.1425 34.068 39.0534C33.8752 39.0447 33.9103 38.75 34.1021 38.7586Z" fill="white"/>
<path d="M44.45 26.1243C44.6456 26.4429 44.918 26.7084 45.2426 26.8968C45.5673 27.0853 45.9341 27.1908 46.3101 27.2041C46.5029 27.2103 46.4676 27.505 46.276 27.4989C45.8607 27.4824 45.4557 27.3653 45.0966 27.1578C44.7374 26.9504 44.4349 26.659 44.2156 26.3089C44.1922 26.2777 44.1816 26.2387 44.1861 26.2C44.1905 26.1613 44.2097 26.1257 44.2397 26.1005C44.2709 26.0762 44.3104 26.0651 44.3498 26.0695C44.3892 26.074 44.4252 26.0937 44.45 26.1243Z" fill="white"/>
<path d="M60.0529 44.4272C59.9324 44.4268 59.8119 44.4263 59.6899 44.4278C58.0696 44.4297 56.4521 44.5621 54.8534 44.8237C54.7295 44.842 54.6042 44.8623 54.4811 44.8841C50.6363 45.5549 46.9505 46.9274 43.6112 48.9319C42.2832 49.7308 41.0183 50.6286 39.8277 51.6177C38.1835 52.9837 36.5104 54.5945 34.5642 55.3209C34.362 55.399 34.1552 55.4645 33.9448 55.5172L24.6848 49.4971C24.6706 49.4729 24.655 49.4508 24.6408 49.4266L24.26 49.203C24.3178 49.1477 24.379 49.0916 24.4368 49.0364C24.4702 49.0042 24.5057 48.9733 24.5391 48.9411C24.562 48.9201 24.585 48.8991 24.6045 48.8788C24.6121 48.8718 24.6198 48.8648 24.626 48.8599C24.6455 48.8396 24.6657 48.8228 24.6838 48.8046C25.0248 48.4902 25.3686 48.1776 25.7152 47.8668C25.7166 47.8647 25.7166 47.8647 25.7201 47.864C28.3673 45.5028 31.2367 43.3399 34.346 41.6774C34.4396 41.6275 34.5344 41.5753 34.6322 41.5281C36.0379 40.7864 37.5025 40.1599 39.0112 39.6548C39.8382 39.3808 40.6787 39.1485 41.5294 38.9588C43.7285 38.4728 45.991 38.3326 48.234 38.5435C52.7054 38.9646 56.9911 40.7984 59.838 44.1677C59.9107 44.254 59.9815 44.3389 60.0529 44.4272Z" fill="#F0F0F0"/>
<path d="M59.955 44.5302C54.7432 42.4402 48.9995 42.0311 43.5397 43.361C42.3592 43.6266 41.2283 44.075 40.1887 44.6896C39.1955 45.3208 38.391 46.2042 37.8586 47.2478C37.3426 48.211 36.9272 49.2555 36.1839 50.0776C35.7972 50.4929 35.3262 50.8223 34.802 51.0445C34.2777 51.2666 33.712 51.3764 33.1419 51.3667C31.7209 51.379 30.3801 50.8844 29.0859 50.3556C27.6489 49.7685 26.1657 49.136 24.5775 49.2338C24.3851 49.2456 24.3778 48.9489 24.5699 48.9371C27.3331 48.7671 29.6259 50.6704 32.2958 51.0179C33.5415 51.18 34.8442 50.971 35.7729 50.074C36.5851 49.2896 37.0143 48.2128 37.5283 47.2331C38.0326 46.2074 38.7825 45.3197 39.7126 44.6476C40.7173 43.9824 41.8289 43.4916 42.9997 43.1961C45.6249 42.4892 48.3459 42.1958 51.0631 42.3267C54.165 42.459 57.2212 43.1164 60.0995 44.2703C60.2776 44.3418 60.1319 44.6012 59.955 44.5302L59.955 44.5302Z" fill="white"/>
<path d="M45.2723 42.8302C45.1716 41.8919 45.4106 40.9487 45.9466 40.1689C46.4827 39.3892 47.281 38.8238 48.1988 38.5736C48.3847 38.5236 48.4718 38.8076 48.2857 38.8576C47.4305 39.089 46.687 39.6158 46.1893 40.3429C45.6916 41.07 45.4725 41.9495 45.5716 42.8226C45.5929 43.0124 45.2935 43.0188 45.2723 42.8302V42.8302Z" fill="white"/>
<path d="M38.0552 46.7253C39.5581 47.9505 41.4717 48.5693 43.4144 48.4582C43.6068 48.447 43.6142 48.7437 43.422 48.7548C41.4001 48.8667 39.4101 48.2188 37.8489 46.9403C37.7002 46.8184 37.9073 46.604 38.0552 46.7253H38.0552Z" fill="white"/>
<path d="M53.9918 42.8131C53.9544 43.1842 54.0107 43.5586 54.1554 43.9029C54.3002 44.2471 54.5289 44.5503 54.8211 44.7852C54.9713 44.9053 54.7641 45.1195 54.6148 45.0003C54.2932 44.7392 54.041 44.4041 53.8803 44.0241C53.7195 43.6442 53.655 43.2309 53.6925 42.8206C53.6928 42.7816 53.708 42.7442 53.7351 42.716C53.7622 42.6877 53.7991 42.6707 53.8384 42.6685C53.878 42.6677 53.9163 42.6825 53.9451 42.7095C53.9738 42.7366 53.9906 42.7738 53.9918 42.8131Z" fill="white"/>
<path d="M164.14 129.106C168.936 130.271 174.528 129.163 177.682 125.398C172.313 125.325 167.144 123.371 163.089 119.884C161.53 118.533 159.938 116.87 157.868 116.804C156.58 116.763 155.344 117.387 154.39 118.245C153.436 119.104 152.722 120.187 152.02 121.257L151.74 121.415C155.246 124.86 159.345 127.941 164.14 129.106Z" fill="#F0F0F0"/>
<path d="M177.612 125.323C173.793 126.767 169.613 126.981 165.665 125.936C164.811 125.726 163.996 125.384 163.249 124.923C162.537 124.45 161.965 123.796 161.594 123.03C161.233 122.323 160.946 121.558 160.418 120.949C160.143 120.642 159.806 120.396 159.428 120.227C159.05 120.058 158.641 119.97 158.226 119.969C157.194 119.94 156.212 120.28 155.264 120.645C154.211 121.051 153.124 121.49 151.971 121.396C151.831 121.384 151.822 121.6 151.961 121.611C153.967 121.775 155.661 120.424 157.606 120.21C158.514 120.11 159.457 120.281 160.119 120.946C160.698 121.528 160.994 122.317 161.353 123.036C161.705 123.789 162.237 124.444 162.903 124.946C163.623 125.444 164.424 125.817 165.27 126.048C167.168 126.6 169.141 126.852 171.117 126.796C173.374 126.745 175.604 126.311 177.713 125.514C177.843 125.464 177.741 125.274 177.612 125.323H177.612Z" fill="white"/>
<path d="M166.917 126.347C166.83 127.027 166.99 127.716 167.368 128.291C167.746 128.865 168.318 129.287 168.981 129.482C169.116 129.521 169.183 129.316 169.048 129.277C168.43 129.097 167.898 128.703 167.547 128.168C167.196 127.632 167.049 126.99 167.134 126.357C167.152 126.219 166.935 126.21 166.917 126.347V126.347Z" fill="white"/>
<path d="M161.729 123.413C162.839 122.544 164.239 122.122 165.649 122.23C165.789 122.241 165.798 122.026 165.659 122.015C164.191 121.904 162.735 122.347 161.582 123.253C161.472 123.34 161.62 123.499 161.729 123.413H161.729Z" fill="white"/>
<path d="M173.253 126.485C173.231 126.215 173.278 125.943 173.388 125.695C173.498 125.447 173.669 125.23 173.885 125.064C173.995 124.979 173.848 124.82 173.738 124.904C173.5 125.089 173.312 125.329 173.19 125.603C173.067 125.877 173.014 126.176 173.036 126.475C173.035 126.503 173.046 126.531 173.065 126.552C173.084 126.573 173.111 126.586 173.139 126.588C173.168 126.589 173.196 126.579 173.217 126.559C173.239 126.54 173.252 126.513 173.253 126.485Z" fill="white"/>
<path d="M174.578 109.117C174.507 109.168 174.436 109.22 174.363 109.27C173.408 109.953 172.399 110.558 171.345 111.079C171.264 111.121 171.181 111.161 171.1 111.201C168.547 112.429 165.786 113.177 162.958 113.406C161.832 113.496 160.702 113.501 159.575 113.421C158.02 113.311 156.342 113.069 154.884 113.463C154.731 113.502 154.581 113.551 154.435 113.609L151.568 121.064C151.57 121.084 151.57 121.104 151.572 121.124L151.444 121.417C151.502 121.425 151.562 121.432 151.62 121.44C151.653 121.445 151.687 121.448 151.721 121.453C151.744 121.456 151.766 121.458 151.786 121.462C151.794 121.463 151.801 121.464 151.807 121.464C151.827 121.468 151.846 121.469 151.865 121.472C152.201 121.513 152.538 121.552 152.875 121.589C152.877 121.59 152.877 121.59 152.879 121.589C155.45 121.893 158.048 121.893 160.618 121.59C160.695 121.58 160.773 121.571 160.851 121.558C161.998 121.401 163.13 121.152 164.235 120.812C164.84 120.624 165.435 120.406 166.018 120.159C167.522 119.517 168.914 118.644 170.145 117.573C172.597 115.437 174.334 112.547 174.562 109.361C174.568 109.279 174.573 109.199 174.578 109.117Z" fill="#F0F0F0"/>
<path d="M174.476 109.098C172.304 112.529 169.097 115.195 165.31 116.717C164.5 117.059 163.642 117.273 162.765 117.35C161.909 117.397 161.056 117.217 160.294 116.827C159.576 116.477 158.882 116.037 158.091 115.867C157.685 115.786 157.266 115.791 156.862 115.881C156.458 115.972 156.077 116.146 155.746 116.392C154.903 116.985 154.326 117.842 153.791 118.7C153.197 119.653 152.595 120.651 151.618 121.264C151.499 121.339 151.623 121.516 151.741 121.442C153.441 120.376 153.974 118.287 155.397 116.955C156.061 116.333 156.918 115.906 157.851 116.043C158.666 116.162 159.382 116.615 160.105 116.975C160.843 117.366 161.666 117.572 162.503 117.575C163.38 117.543 164.246 117.363 165.063 117.042C166.913 116.35 168.641 115.374 170.185 114.15C171.956 112.762 173.473 111.085 174.672 109.19C174.747 109.073 174.549 108.981 174.476 109.098H174.476Z" fill="white"/>
<path d="M166.558 116.298C166.902 116.894 167.448 117.348 168.099 117.581C168.75 117.814 169.463 117.81 170.111 117.57C170.242 117.521 170.171 117.317 170.04 117.366C169.437 117.591 168.773 117.594 168.167 117.376C167.562 117.158 167.055 116.733 166.738 116.176C166.669 116.056 166.49 116.178 166.558 116.298Z" fill="white"/>
<path d="M160.634 117.051C160.993 115.695 161.854 114.523 163.046 113.768C163.164 113.693 163.041 113.515 162.923 113.59C161.684 114.378 160.79 115.6 160.42 117.012C160.385 117.146 160.599 117.185 160.634 117.051Z" fill="white"/>
<path d="M171.701 112.627C171.52 112.424 171.392 112.18 171.329 111.916C171.267 111.652 171.271 111.377 171.342 111.115C171.379 110.981 171.165 110.942 171.128 111.076C171.051 111.365 171.047 111.669 171.115 111.961C171.184 112.252 171.323 112.523 171.522 112.749C171.539 112.772 171.564 112.787 171.592 112.793C171.62 112.798 171.649 112.792 171.673 112.777C171.697 112.761 171.713 112.736 171.718 112.708C171.724 112.68 171.717 112.651 171.701 112.627Z" fill="white"/>
<path d="M183.354 83.4223L176.042 95.6188L176.32 95.7641L173.844 100.417L173.329 100.147L171.702 102.859L172.106 103.089L169.453 107.643L168.993 107.38L145.134 147.18C144.509 148.221 143.492 148.974 142.307 149.273C141.121 149.572 139.865 149.393 138.813 148.775L94.4585 122.651C93.4076 122.031 92.6479 121.023 92.3461 119.848C92.0443 118.674 92.2252 117.428 92.849 116.385L131.069 52.6281C131.695 51.5865 132.712 50.8336 133.897 50.5345C135.082 50.2354 136.338 50.4146 137.39 51.0328L181.745 77.1563C182.795 77.7768 183.555 78.7849 183.856 79.9595C184.158 81.1342 183.978 82.3795 183.354 83.4223Z" fill="#3F3D56"/>
<path d="M140.394 146.314L95.8829 120.099C95.5591 119.907 95.325 119.597 95.232 119.234C95.139 118.872 95.1947 118.488 95.3869 118.167L133.86 53.9856C134.053 53.6646 134.367 53.4325 134.732 53.3403C135.097 53.2482 135.485 53.3034 135.809 53.4939L180.32 79.7092C180.643 79.9004 180.878 80.2112 180.971 80.5733C181.064 80.9354 181.008 81.3193 180.816 81.6407L142.342 145.822C142.149 146.143 141.836 146.375 141.47 146.467C141.105 146.56 140.718 146.504 140.394 146.314Z" fill="white"/>
<path d="M158.678 65.5871C158.894 65.5871 159.07 65.413 159.07 65.1982C159.07 64.9834 158.894 64.8093 158.678 64.8093C158.461 64.8093 158.285 64.9834 158.285 65.1982C158.285 65.413 158.461 65.5871 158.678 65.5871Z" fill="white"/>
<path d="M156.249 111.563L119.094 89.6796C118.977 89.6115 118.876 89.5213 118.794 89.4142C118.713 89.3071 118.654 89.1851 118.62 89.0552C118.587 88.9254 118.579 88.7902 118.598 88.6575C118.618 88.5248 118.663 88.3972 118.732 88.282C118.801 88.1667 118.892 88.0661 119.001 87.986C119.109 87.9058 119.233 87.8476 119.364 87.8148C119.495 87.782 119.631 87.7752 119.765 87.7947C119.899 87.8143 120.027 87.8598 120.143 87.9287L157.299 109.812C157.415 109.88 157.517 109.97 157.598 110.077C157.68 110.184 157.739 110.306 157.772 110.436C157.806 110.566 157.813 110.701 157.794 110.834C157.775 110.967 157.73 111.094 157.661 111.21C157.591 111.325 157.5 111.425 157.392 111.506C157.283 111.586 157.16 111.644 157.029 111.677C156.898 111.71 156.761 111.716 156.628 111.697C156.494 111.677 156.365 111.632 156.249 111.563H156.249Z" fill="#E6E6E6"/>
<path d="M141.413 108.172L129.192 100.974C129.076 100.906 128.975 100.815 128.894 100.708C128.813 100.601 128.754 100.479 128.721 100.35C128.688 100.22 128.68 100.085 128.7 99.9529C128.719 99.8205 128.764 99.6932 128.833 99.5782C128.902 99.4632 128.993 99.3628 129.101 99.2827C129.21 99.2027 129.332 99.1445 129.463 99.1115C129.594 99.0785 129.73 99.0714 129.864 99.0905C129.997 99.1097 130.126 99.1547 130.242 99.223L142.463 106.421C142.579 106.489 142.68 106.58 142.761 106.687C142.842 106.794 142.901 106.916 142.934 107.045C142.967 107.175 142.974 107.31 142.955 107.442C142.936 107.574 142.89 107.702 142.821 107.817C142.752 107.932 142.661 108.032 142.553 108.112C142.445 108.192 142.322 108.25 142.192 108.283C142.061 108.316 141.925 108.323 141.791 108.304C141.658 108.285 141.529 108.24 141.413 108.172Z" fill="#E6E6E6"/>
<path d="M136.608 116.188L124.387 108.99C124.152 108.852 123.983 108.627 123.916 108.366C123.849 108.104 123.889 107.826 124.028 107.594C124.168 107.362 124.394 107.194 124.658 107.128C124.922 107.061 125.202 107.101 125.436 107.239L137.658 114.437C137.774 114.505 137.875 114.596 137.956 114.703C138.036 114.81 138.095 114.932 138.128 115.061C138.162 115.191 138.169 115.326 138.15 115.458C138.13 115.59 138.085 115.718 138.016 115.833C137.947 115.948 137.856 116.048 137.748 116.128C137.64 116.208 137.517 116.266 137.386 116.299C137.256 116.332 137.12 116.339 136.986 116.32C136.852 116.301 136.724 116.256 136.608 116.188Z" fill="#E6E6E6"/>
<path d="M134.147 120.293L121.926 113.095C121.809 113.027 121.708 112.937 121.627 112.83C121.545 112.723 121.486 112.601 121.453 112.471C121.419 112.341 121.412 112.206 121.431 112.074C121.451 111.941 121.496 111.814 121.565 111.699C121.634 111.583 121.725 111.483 121.834 111.403C121.942 111.323 122.065 111.265 122.196 111.232C122.327 111.199 122.463 111.192 122.597 111.211C122.731 111.231 122.859 111.276 122.975 111.345L135.197 118.543C135.313 118.611 135.415 118.701 135.496 118.808C135.578 118.915 135.637 119.037 135.67 119.167C135.704 119.297 135.711 119.432 135.692 119.565C135.673 119.697 135.628 119.825 135.558 119.94C135.489 120.056 135.398 120.156 135.29 120.236C135.181 120.317 135.058 120.375 134.927 120.407C134.796 120.44 134.659 120.447 134.525 120.428C134.392 120.408 134.263 120.362 134.147 120.293V120.293Z" fill="#E6E6E6"/>
<path d="M145.898 116.161L119.969 100.889C119.736 100.75 119.567 100.526 119.501 100.265C119.434 100.004 119.475 99.7269 119.614 99.4953C119.753 99.2637 119.978 99.0961 120.242 99.0291C120.505 98.9622 120.784 99.0013 121.018 99.1379L146.948 114.41C147.065 114.478 147.166 114.568 147.248 114.675C147.329 114.782 147.388 114.904 147.422 115.034C147.455 115.164 147.463 115.299 147.444 115.432C147.424 115.564 147.379 115.692 147.31 115.807C147.241 115.923 147.149 116.023 147.041 116.103C146.933 116.184 146.809 116.242 146.678 116.275C146.547 116.307 146.411 116.314 146.277 116.295C146.143 116.275 146.014 116.229 145.898 116.161Z" fill="#E6E6E6"/>
<path d="M140.956 135.678L136.519 133.064C136.121 132.829 135.834 132.448 135.72 132.003C135.606 131.558 135.675 131.087 135.911 130.692C136.148 130.298 136.532 130.012 136.981 129.899C137.43 129.785 137.905 129.853 138.304 130.087L142.741 132.701C143.139 132.935 143.427 133.317 143.542 133.762C143.656 134.207 143.587 134.679 143.351 135.074C143.114 135.469 142.729 135.754 142.28 135.867C141.831 135.981 141.355 135.912 140.956 135.678Z" fill="#EB9554"/>
<path d="M149.236 93.2429C154.259 93.2429 158.331 89.2064 158.331 84.227C158.331 79.2477 154.259 75.2112 149.236 75.2112C144.212 75.2112 140.14 79.2477 140.14 84.227C140.14 89.2064 144.212 93.2429 149.236 93.2429Z" fill="#EB9554"/>
<path d="M0.106445 120.864H123.197V50.2279C123.197 49.6986 122.984 49.1912 122.607 48.817C122.229 48.4427 121.717 48.2322 121.184 48.2316H2.12039C1.58646 48.2322 1.07456 48.4427 0.697001 48.817C0.319444 49.1912 0.107062 49.6986 0.106445 50.2279V120.864Z" fill="#CACACA"/>
<path d="M119.395 50.9925H3.91016V115.98H119.395V50.9925Z" fill="white"/>
<path d="M1.65587e-10 118.953V127.67C-3.98143e-06 128.031 0.0717972 128.389 0.211304 128.723C0.350811 129.056 0.555292 129.36 0.813071 129.615C1.07085 129.871 1.37688 130.074 1.71369 130.212C2.05049 130.35 2.41148 130.421 2.77604 130.421H48.208V147.624H47.6044C47.5571 147.624 47.5102 147.633 47.4664 147.651C47.4227 147.669 47.3829 147.695 47.3494 147.728C47.3159 147.762 47.2894 147.801 47.2713 147.844C47.2531 147.888 47.2438 147.934 47.2438 147.981V149.178C47.2438 149.225 47.2531 149.271 47.2713 149.315C47.2894 149.358 47.3159 149.397 47.3494 149.43C47.3829 149.464 47.4227 149.49 47.4664 149.508C47.5102 149.526 47.5571 149.535 47.6044 149.535H75.808C75.8553 149.535 75.9022 149.526 75.946 149.508C75.9897 149.49 76.0295 149.464 76.063 149.43C76.0965 149.397 76.123 149.358 76.1411 149.315C76.1593 149.271 76.1686 149.225 76.1686 149.178V147.981C76.1686 147.934 76.1593 147.888 76.1411 147.844C76.123 147.801 76.0965 147.762 76.063 147.728C76.0295 147.695 75.9897 147.669 75.946 147.651C75.9022 147.633 75.8553 147.624 75.808 147.624H75.2044V130.421H120.636C121.001 130.421 121.362 130.35 121.699 130.212C122.036 130.074 122.342 129.871 122.599 129.615C122.857 129.36 123.062 129.056 123.201 128.723C123.341 128.389 123.412 128.031 123.412 127.67V118.953L1.65587e-10 118.953Z" fill="#3F3D56"/>
<path d="M102.684 72.7267H47.9952C47.6505 72.7267 47.3198 72.591 47.0761 72.3493C46.8323 72.1077 46.6953 71.78 46.6953 71.4382C46.6953 71.0965 46.8323 70.7687 47.0761 70.5271C47.3198 70.2854 47.6505 70.1497 47.9952 70.1497H102.684C103.029 70.1497 103.36 70.2854 103.604 70.5271C103.847 70.7687 103.984 71.0965 103.984 71.4382C103.984 71.78 103.847 72.1077 103.604 72.3493C103.36 72.591 103.029 72.7267 102.684 72.7267Z" fill="#E6E6E6"/>
<path d="M84.3342 78.5434H66.3454C66.0006 78.5434 65.67 78.4076 65.4262 78.166C65.1824 77.9243 65.0454 77.5965 65.0454 77.2548C65.0454 76.913 65.1824 76.5853 65.4262 76.3436C65.67 76.102 66.0006 75.9662 66.3454 75.9662H84.3342C84.679 75.9662 85.0097 76.102 85.2535 76.3436C85.4972 76.5853 85.6342 76.913 85.6342 77.2548C85.6342 77.5965 85.4972 77.9243 85.2535 78.166C85.0097 78.4076 84.679 78.5434 84.3342 78.5434Z" fill="#E6E6E6"/>
<path d="M84.3342 90.342H66.3454C66.0006 90.342 65.67 90.2063 65.4262 89.9646C65.1824 89.7229 65.0454 89.3952 65.0454 89.0534C65.0454 88.7117 65.1824 88.3839 65.4262 88.1423C65.67 87.9006 66.0006 87.7648 66.3454 87.7648H84.3342C84.679 87.7648 85.0097 87.9006 85.2535 88.1423C85.4972 88.3839 85.6342 88.7117 85.6342 89.0534C85.6342 89.3952 85.4972 89.7229 85.2535 89.9646C85.0097 90.2063 84.679 90.342 84.3342 90.342Z" fill="#E6E6E6"/>
<path d="M84.3341 96.3851H66.3453C66.1746 96.3851 66.0056 96.3518 65.8479 96.287C65.6902 96.2223 65.5469 96.1274 65.4262 96.0077C65.3054 95.8881 65.2097 95.746 65.1444 95.5897C65.079 95.4334 65.0454 95.2658 65.0454 95.0966C65.0454 94.9274 65.079 94.7598 65.1444 94.6035C65.2097 94.4472 65.3054 94.3051 65.4262 94.1855C65.5469 94.0658 65.6902 93.9709 65.8479 93.9062C66.0056 93.8414 66.1746 93.8081 66.3453 93.8081H84.3341C84.5049 93.8081 84.6739 93.8414 84.8316 93.9062C84.9893 93.9709 85.1326 94.0658 85.2533 94.1855C85.3741 94.3051 85.4698 94.4472 85.5351 94.6035C85.6005 94.7598 85.6341 94.9274 85.6341 95.0966C85.6341 95.2658 85.6005 95.4334 85.5351 95.5897C85.4698 95.746 85.3741 95.8881 85.2533 96.0077C85.1326 96.1274 84.9893 96.2223 84.8316 96.287C84.6739 96.3518 84.5049 96.3851 84.3341 96.3851Z" fill="#E6E6E6"/>
<path d="M94.4227 84.3599H56.2565C55.9117 84.3599 55.5811 84.2241 55.3373 83.9825C55.0935 83.7409 54.9565 83.4131 54.9565 83.0714C54.9565 82.7296 55.0935 82.4019 55.3373 82.1603C55.5811 81.9186 55.9117 81.7829 56.2565 81.7829H94.4227C94.7674 81.7829 95.0981 81.9186 95.3419 82.1603C95.5857 82.4019 95.7226 82.7296 95.7226 83.0714C95.7226 83.4131 95.5857 83.7409 95.3419 83.9825C95.0981 84.2241 94.7674 84.3599 94.4227 84.3599Z" fill="#E6E6E6"/>
<path d="M101.774 108.758H95.2423C94.656 108.758 94.0937 108.527 93.6792 108.116C93.2646 107.705 93.0317 107.148 93.0317 106.567C93.0317 105.986 93.2646 105.429 93.6792 105.018C94.0937 104.607 94.656 104.376 95.2423 104.376H101.774C102.36 104.376 102.922 104.607 103.337 105.018C103.752 105.429 103.984 105.986 103.984 106.567C103.984 107.148 103.752 107.705 103.337 108.116C102.922 108.527 102.36 108.758 101.774 108.758Z" fill="#EB9554"/>
<path d="M30.7979 92.8551C37.0772 92.8551 42.1676 87.8094 42.1676 81.5852C42.1676 75.3611 37.0772 70.3154 30.7979 70.3154C24.5186 70.3154 19.4282 75.3611 19.4282 81.5852C19.4282 87.8094 24.5186 92.8551 30.7979 92.8551Z" fill="#EB9554"/>
<path d="M163.846 150H0.300945C0.221308 150 0.145014 149.968 0.0887845 149.912C0.0325546 149.856 0.000976562 149.781 0.000976562 149.702C0.000976562 149.623 0.0325546 149.547 0.0887845 149.491C0.145014 149.435 0.221308 149.404 0.300945 149.404H163.846C163.926 149.404 164.002 149.435 164.058 149.491C164.115 149.547 164.146 149.623 164.146 149.702C164.146 149.781 164.115 149.856 164.058 149.912C164.002 149.968 163.926 150 163.846 150Z" fill="#CACACA"/>
<path d="M61.5989 49.6121C61.8356 49.6121 62.0274 49.4219 62.0274 49.1873C62.0274 48.9528 61.8356 48.7626 61.5989 48.7626C61.3623 48.7626 61.1704 48.9528 61.1704 49.1873C61.1704 49.4219 61.3623 49.6121 61.5989 49.6121Z" fill="white"/>
</g>
<defs>
<clipPath id="clip0">
<rect width="184" height="150" fill="white"/>
</clipPath>
</defs>
</svg>
